<svg width="31" height="30" viewBox="0 0 31 30" fill="none" xmlns="http://www.w3.org/2000/svg">
<path d="M29.9734 13.6525L16.2956 1.18938C15.6952 0.642256 14.7899 0.642315 14.1898 1.18933L0.511941 13.6526C0.0310238 14.0908 -0.127833 14.766 0.107118 15.3727C0.342129 15.9793 0.914323 16.3713 1.56493 16.3713H3.74952V28.8584C3.74952 29.3535 4.15094 29.7549 4.64603 29.7549H12.1432C12.6382 29.7549 13.0397 29.3536 13.0397 28.8584V21.2766H17.4459V28.8585C17.4459 29.3536 17.8473 29.755 18.3424 29.755H25.8392C26.3342 29.755 26.7357 29.3536 26.7357 28.8585V16.3713H28.9207C29.5712 16.3713 30.1435 15.9793 30.3785 15.3727C30.6131 14.7659 30.4543 14.0908 29.9734 13.6525Z" fill="#202A61" fill-opacity="0.95"/>
</svg>
