<svg width="14" height="15" viewBox="0 0 14 15" fill="none" xmlns="http://www.w3.org/2000/svg">
<path d="M10.729 14.1912C10.6185 14.1917 10.5095 14.1635 10.4111 14.109L6.88628 12.1152L3.36146 14.109C3.247 14.1741 3.11795 14.2031 2.98898 14.1928C2.86002 14.1826 2.7363 14.1334 2.63191 14.0509C2.52751 13.9685 2.44662 13.8561 2.39843 13.7264C2.35024 13.5967 2.33668 13.4551 2.3593 13.3175L3.05044 9.11332L0.20294 6.12638C0.114099 6.03057 0.0510761 5.91043 0.0206358 5.7789C-0.00980475 5.64735 -0.00651417 5.50932 0.0301543 5.37964C0.0702129 5.24689 0.1439 5.12897 0.242853 5.03925C0.341807 4.94948 0.462064 4.89147 0.589978 4.87182L4.52948 4.25205L6.26425 0.421265C6.32085 0.295002 6.40922 0.188488 6.5192 0.113998C6.62923 0.0395088 6.75645 0 6.88628 0C7.01612 0 7.14334 0.0395088 7.25332 0.113998C7.36335 0.188488 7.45171 0.295002 7.50831 0.421265L9.26381 4.24456L13.2033 4.86438C13.3312 4.88403 13.4515 4.94199 13.5504 5.03176C13.6494 5.12153 13.7231 5.23945 13.7631 5.37215C13.7998 5.50184 13.8031 5.63986 13.7727 5.77146C13.7422 5.903 13.6792 6.02314 13.5904 6.11889L10.7429 9.10587L11.434 13.31C11.4587 13.45 11.4458 13.5947 11.3967 13.7271C11.3478 13.8594 11.2648 13.9738 11.1575 14.0568C11.0324 14.1516 10.8817 14.1988 10.729 14.1912Z" fill="#202A61" fill-opacity="0.95"/>
</svg>
