<svg width="124" height="156" viewBox="0 0 124 156" fill="none" xmlns="http://www.w3.org/2000/svg">
<path d="M51.5873 45.5717C51.5873 42.9409 49.4545 40.8087 46.8242 40.8087C44.1933 40.8087 42.0605 42.9409 42.0605 45.5717C42.0605 48.202 44.1933 50.3348 46.8242 50.3348C49.4545 50.3348 51.5873 48.202 51.5873 45.5717ZM45.2881 46.4402C44.0826 46.4402 43.1052 45.4628 43.1052 44.2572C43.1052 43.0516 44.0826 42.0742 45.2881 42.0742C46.4938 42.0742 47.4712 43.0516 47.4712 44.2572C47.4712 45.4628 46.4938 46.4402 45.2881 46.4402Z" fill="#4A4B4D"/>
<path d="M76.2816 40.8087C73.6508 40.8087 71.5186 42.9409 71.5186 45.5717C71.5186 48.202 73.6508 50.3348 76.2816 50.3348C78.9119 50.3348 81.0447 48.202 81.0447 45.5717C81.0447 42.9409 78.9119 40.8087 76.2816 40.8087ZM74.7455 46.4402C73.5399 46.4402 72.5631 45.4628 72.5631 44.2572C72.5631 43.0516 73.5399 42.0742 74.7455 42.0742C75.9512 42.0742 76.9286 43.0516 76.9286 44.2572C76.9286 45.4628 75.9512 46.4402 74.7455 46.4402Z" fill="#4A4B4D"/>
<path d="M68.2651 71.834C68.2651 68.1271 65.2596 62.7327 61.5527 62.7327C57.8457 62.7327 54.8408 68.1271 54.8408 71.834C54.8408 75.5411 57.8457 75.6887 61.5527 75.6887C65.2596 75.6887 68.2651 75.5411 68.2651 71.834Z" fill="#4A4B4D"/>
<path d="M62.2814 92.3879C73.3605 92.3879 82.3413 87.6308 82.3413 81.762C82.3413 79.5034 81.0068 77.4105 78.7372 75.6887C79.5839 76.8646 80.0518 78.1392 80.0518 79.4725C80.0518 85.3406 71.0703 90.0977 59.9912 90.0977C53.177 90.0977 47.1605 88.2966 43.5347 85.5458C46.4143 89.5451 53.7192 92.3879 62.2814 92.3879Z" fill="#4A4B4D"/>
<path d="M26.6865 45.4041C27.0865 49.2375 28.3903 52.1746 30.0806 52.7496C31.7607 53.3209 34.1362 53.6683 36.8597 53.7495C36.542 53.0262 36.2642 52.2715 36.0354 51.486C34.3353 45.6255 35.7219 39.738 39.1589 36.0728C37.6821 35.939 36.1903 35.8634 34.736 35.8634C32.7926 35.8634 30.9564 35.8634 29.5275 36.4952C29.1825 36.6478 28.7243 37.0369 28.2704 37.6209C28.9482 37.8703 29.5722 38.2213 30.1321 38.6528C30.0909 38.7273 30.0455 38.7969 30.0001 38.8713C28.7661 40.9678 27.6664 43.1593 26.6865 45.4041Z" fill="#4A4B4D"/>
<path d="M86.938 51.1561C86.6875 52.0633 86.3673 52.9282 85.9976 53.7549C88.8245 53.6877 91.295 53.3385 93.0253 52.7496C94.7133 52.1753 96.0157 49.2448 96.4176 45.4174C95.3954 43.1085 94.2424 40.8558 92.9509 38.7037C93.5004 38.2873 94.1789 37.8715 94.8362 37.6221C94.3823 37.0375 93.9235 36.6478 93.5779 36.4946C92.149 35.8634 90.3134 35.8634 88.37 35.8634C86.9023 35.8634 85.3972 35.9402 83.9077 36.0764C87.188 39.7162 88.5213 45.4362 86.938 51.1561Z" fill="#4A4B4D"/>
<path d="M111.841 43.5504C110.699 40.2786 108.906 37.48 106.748 35.3303C106.687 35.5923 106.619 35.8332 106.546 36.0323C106.047 37.3934 104.995 37.9957 104.299 38.3945C103.611 38.7885 103.52 38.8641 103.449 39.2944L103.369 39.7956C104.876 41.1791 106.131 43.0516 106.907 45.2734C108.947 51.115 106.907 57.146 102.344 58.7371C101.791 58.9308 101.23 59.0463 100.665 59.096C100.649 59.0131 100.637 58.9308 100.62 58.8442C100.301 57.1381 99.8985 55.4302 99.4209 53.7325C98.3219 55.55 96.9087 56.9626 95.061 57.5914C92.2093 58.5616 88.3564 59.096 84.2131 59.096C83.5794 59.096 82.9475 59.0821 82.3199 59.0579C82.2654 59.1105 82.2146 59.1674 82.1602 59.2195C88.2614 63.4614 92.1076 69.579 92.153 76.4053C92.2353 89.3412 78.6481 99.9156 61.8042 100.027C44.9598 100.133 31.2371 89.737 31.1499 76.801C31.1087 69.9742 34.8726 63.8076 40.9163 59.4875C40.7698 59.3526 40.6313 59.2067 40.4891 59.0657C39.9589 59.0833 39.4263 59.096 38.8919 59.096C34.7486 59.096 30.8963 58.5616 28.0445 57.5914C26.2126 56.9681 24.8072 55.5748 23.7117 53.7803C23.2028 55.6317 22.7785 57.4946 22.4559 59.3557C22.0686 61.561 21.8211 63.7623 21.7182 65.9307C21.6686 66.8253 21.6521 67.7155 21.6564 68.598C21.8047 91.5799 38.8549 105.245 61.837 105.097C84.8189 104.949 101.688 91.0606 101.539 68.0781C101.536 67.2786 101.507 66.4749 101.457 65.6669C102.5 65.613 103.539 65.4151 104.553 65.061C111.837 62.5173 115.102 52.887 111.841 43.5504Z" fill="#4A4B4D"/>
<path d="M53.036 33.0492C53.4923 33.2139 53.9408 33.4003 54.3771 33.6157C56.7442 34.0696 59.1463 34.3014 61.5224 34.3014C63.6733 34.3014 65.8442 34.1023 67.9904 33.7301C69.0894 33.1206 70.2678 32.6825 71.4915 32.4119C75.3516 30.7784 80.4258 29.4076 85.2784 28.6929C85.1277 28.5398 84.98 28.3824 84.8276 28.2317C82.7607 26.1848 74.7119 19.8876 73.8422 19.1316C70.8312 16.5134 62.7455 9.90442 60.8494 0C59.2353 2.02515 58.3879 4.61487 58.3467 7.19849C58.3026 9.95593 58.975 12.6873 60.2339 15.1166C58.0515 13.8275 54.2386 7.36194 53.4354 2.74109C50.6774 6.75549 51.5114 15.2407 52.6862 17.6058C49.4725 16.2726 46.8724 10.5188 46.8173 8.12878C45.2032 10.1538 43.2993 16.8838 46.2551 21.9296C43.1776 23.7222 40.3161 26.0111 37.7173 28.6765C43.2266 29.4772 49.0349 31.1259 53.036 33.0492Z" fill="#4A4B4D"/>
<path d="M22.4688 59.0996C21.8914 59.0506 21.3225 58.935 20.7621 58.7371C16.1987 57.146 14.1579 51.115 16.1987 45.2734C16.9741 43.0516 18.2293 41.1791 19.7363 39.7956L19.6564 39.2944C19.5861 38.8635 19.4942 38.7885 18.8066 38.3945C18.1107 37.9957 17.0582 37.3934 16.5594 36.033C16.4863 35.8332 16.419 35.593 16.3579 35.3303C14.1991 37.48 12.4064 40.2786 11.2643 43.5504C8.00347 52.887 11.268 62.5173 18.5524 65.061C19.5789 65.4193 20.6302 65.6215 21.6893 65.6711C21.8049 63.5026 22.0688 61.3051 22.4688 59.0996Z" fill="#4A4B4D"/>
<path d="M103.701 29.836C100.997 28.8253 88.5388 30.1683 88.5388 30.1683L88.5418 30.1689C81.3796 30.799 73.76 33.0903 69.7479 35.2945C69.5664 35.3308 69.3546 35.3732 69.0979 35.4222C64.0631 36.3997 58.9817 36.3997 53.9469 35.4222C53.7345 35.3817 53.5504 35.3453 53.3907 35.3132C49.3872 33.1036 41.7463 30.8007 34.5642 30.1689L34.5671 30.1683C34.5671 30.1683 22.1088 28.8253 19.4041 29.836C17.632 30.4988 17.8292 34.1101 18.3001 35.3937C18.9071 37.0496 21.1005 36.6315 21.486 38.996C22.2661 43.7827 23.6079 54.1235 28.6421 55.8363C31.4152 56.7792 35.1022 57.2415 38.8921 57.2415C43.3919 57.2415 48.0352 56.5891 51.4552 55.3164C56.9597 53.2665 58.2972 47.4788 58.2113 43.1442C58.1925 42.2255 58.8467 41.4309 59.7497 41.2589C60.3386 41.1476 60.9287 41.0435 61.5224 41.0435C62.1361 41.0435 62.7456 41.1549 63.3544 41.2717C64.2573 41.4441 64.9122 42.2369 64.8941 43.1563C64.8112 47.4897 66.1505 53.2683 71.6502 55.3164C75.0702 56.5891 79.7135 57.2415 84.2139 57.2415C88.0032 57.2415 91.6907 56.7792 94.4639 55.8363C99.4974 54.1235 100.839 43.7827 101.619 38.996C102.005 36.6315 104.198 37.0496 104.805 35.3937C105.276 34.1101 105.474 30.4988 103.701 29.836ZM50.568 53.8433C44.9303 55.7921 34.8371 56.3259 29.4833 54.5048C26.384 53.4504 24.7021 48.53 24.7021 42.9075C24.7021 38.7824 26.988 35.5905 28.7783 34.7994C30.5648 34.009 32.6281 34.009 34.736 34.009C41.3069 34.009 49.0501 35.4289 52.7304 37.6912C54.4976 38.7775 55.6591 40.454 55.7692 42.056C55.9502 44.6748 56.2861 51.866 50.568 53.8433ZM93.622 54.5048C88.2688 56.3259 78.175 55.7921 72.5374 53.8433C66.8193 51.866 67.1558 44.6748 67.3362 42.056C67.4469 40.454 68.6077 38.7775 70.3755 37.6912C74.0559 35.4289 81.7985 34.009 88.3693 34.009C90.4779 34.009 92.5405 34.009 94.3278 34.7994C96.1179 35.5905 98.4032 38.7824 98.4032 42.9075C98.4032 48.53 96.7219 53.4504 93.622 54.5048Z" fill="#202A61" fill-opacity="0.95"/>
<path d="M2.78134 151V127.2H17.4353V131.416H7.13334V136.482H15.0893V140.698H7.13334V151H2.78134ZM31.9366 151.476C29.6699 151.476 27.6526 150.966 25.8846 149.946C24.1166 148.915 22.7283 147.475 21.7196 145.628C20.7109 143.769 20.2066 141.593 20.2066 139.1C20.2066 136.607 20.7109 134.436 21.7196 132.589C22.7283 130.73 24.1166 129.291 25.8846 128.271C27.6526 127.24 29.6699 126.724 31.9366 126.724C34.2033 126.724 36.2206 127.24 37.9886 128.271C39.7566 129.291 41.1449 130.73 42.1536 132.589C43.1623 134.436 43.6666 136.607 43.6666 139.1C43.6666 141.593 43.1623 143.769 42.1536 145.628C41.1449 147.475 39.7566 148.915 37.9886 149.946C36.2206 150.966 34.2033 151.476 31.9366 151.476ZM31.9366 147.26C33.5233 147.26 34.8493 146.909 35.9146 146.206C36.9799 145.503 37.7789 144.54 38.3116 143.316C38.8443 142.081 39.1106 140.675 39.1106 139.1C39.1106 137.525 38.8443 136.125 38.3116 134.901C37.7789 133.666 36.9799 132.697 35.9146 131.994C34.8493 131.291 33.5233 130.94 31.9366 130.94C30.3499 130.94 29.0239 131.291 27.9586 131.994C26.8933 132.697 26.0943 133.666 25.5616 134.901C25.0289 136.125 24.7626 137.525 24.7626 139.1C24.7626 140.675 25.0289 142.081 25.5616 143.316C26.0943 144.54 26.8933 145.503 27.9586 146.206C29.0239 146.909 30.3499 147.26 31.9366 147.26ZM58.9246 151.476C56.658 151.476 54.6406 150.966 52.8726 149.946C51.1046 148.915 49.7163 147.475 48.7076 145.628C47.699 143.769 47.1946 141.593 47.1946 139.1C47.1946 136.607 47.699 134.436 48.7076 132.589C49.7163 130.73 51.1046 129.291 52.8726 128.271C54.6406 127.24 56.658 126.724 58.9246 126.724C61.1913 126.724 63.2086 127.24 64.9766 128.271C66.7446 129.291 68.133 130.73 69.1416 132.589C70.1503 134.436 70.6546 136.607 70.6546 139.1C70.6546 141.593 70.1503 143.769 69.1416 145.628C68.133 147.475 66.7446 148.915 64.9766 149.946C63.2086 150.966 61.1913 151.476 58.9246 151.476ZM58.9246 147.26C60.5113 147.26 61.8373 146.909 62.9026 146.206C63.968 145.503 64.767 144.54 65.2996 143.316C65.8323 142.081 66.0986 140.675 66.0986 139.1C66.0986 137.525 65.8323 136.125 65.2996 134.901C64.767 133.666 63.968 132.697 62.9026 131.994C61.8373 131.291 60.5113 130.94 58.9246 130.94C57.338 130.94 56.012 131.291 54.9466 131.994C53.8813 132.697 53.0823 133.666 52.5496 134.901C52.017 136.125 51.7506 137.525 51.7506 139.1C51.7506 140.675 52.017 142.081 52.5496 143.316C53.0823 144.54 53.8813 145.503 54.9466 146.206C56.012 146.909 57.338 147.26 58.9246 147.26Z" fill="#FC6011"/>
<path d="M74.0265 151V127.2H82.9345C85.2011 127.2 87.2185 127.676 88.9865 128.628C90.7545 129.569 92.1428 130.929 93.1515 132.708C94.1601 134.476 94.6645 136.607 94.6645 139.1C94.6645 141.593 94.1601 143.73 93.1515 145.509C92.1428 147.277 90.7545 148.637 88.9865 149.589C87.2185 150.53 85.2011 151 82.9345 151H74.0265ZM78.3785 147.124H82.9345C84.4758 147.124 85.7621 146.801 86.7935 146.155C87.8248 145.509 88.6011 144.585 89.1225 143.384C89.6438 142.183 89.9045 140.755 89.9045 139.1C89.9045 137.445 89.6438 136.017 89.1225 134.816C88.6011 133.615 87.8248 132.691 86.7935 132.045C85.7621 131.399 84.4758 131.076 82.9345 131.076H78.3785V147.124ZM98.7415 151V134H102.958V151H98.7415ZM98.7415 131.416V127.2H102.958V131.416H98.7415ZM116.259 151.34C114.208 151.34 112.497 150.932 111.125 150.116C109.765 149.289 108.745 148.201 108.065 146.852C107.385 145.492 107.045 144.007 107.045 142.398C107.045 140.845 107.363 139.412 107.997 138.097C108.643 136.782 109.584 135.728 110.819 134.935C112.055 134.13 113.562 133.728 115.341 133.728C116.973 133.728 118.333 134.062 119.421 134.731C120.509 135.4 121.325 136.295 121.869 137.417C122.413 138.528 122.685 139.757 122.685 141.106C122.685 141.48 122.663 141.86 122.617 142.245C122.572 142.619 122.504 143.01 122.413 143.418H111.431C111.59 144.472 111.919 145.328 112.417 145.985C112.927 146.631 113.545 147.107 114.27 147.413C115.007 147.719 115.795 147.872 116.633 147.872C117.619 147.872 118.537 147.747 119.387 147.498C120.237 147.237 121.019 146.897 121.733 146.478L121.937 150.048C121.291 150.388 120.487 150.688 119.523 150.949C118.56 151.21 117.472 151.34 116.259 151.34ZM111.533 140.562H118.401C118.401 140.052 118.305 139.542 118.112 139.032C117.92 138.511 117.597 138.074 117.143 137.723C116.701 137.372 116.101 137.196 115.341 137.196C114.253 137.196 113.398 137.513 112.774 138.148C112.151 138.783 111.737 139.587 111.533 140.562Z" fill="#4A4B4D"/>
</svg>
